<?xml version="1.0" encoding="UTF-8" standalone="no"?>
<!-- Created with Inkscape (http://www.inkscape.org/) -->

<svg
   xmlns:dc="http://purl.org/dc/elements/1.1/"
   xmlns:cc="http://creativecommons.org/ns#"
   xmlns:rdf="http://www.w3.org/1999/02/22-rdf-syntax-ns#"
   xmlns:svg="http://www.w3.org/2000/svg"
   xmlns="http://www.w3.org/2000/svg"
   xmlns:sodipodi="http://sodipodi.sourceforge.net/DTD/sodipodi-0.dtd"
   xmlns:inkscape="http://www.inkscape.org/namespaces/inkscape"
   id="svg2"
   version="1.1"
   inkscape:version="0.91 r13725"
   xml:space="preserve"
   width="648.38763"
   height="428.97498"
   viewBox="0 0 648.38763 428.97498"
   sodipodi:docname="house.svg"><metadata
     id="metadata8"><rdf:RDF><cc:Work
         rdf:about=""><dc:format>image/svg+xml</dc:format><dc:type
           rdf:resource="http://purl.org/dc/dcmitype/StillImage" /><dc:title></dc:title></cc:Work></rdf:RDF></metadata><defs
     id="defs6"><clipPath
       clipPathUnits="userSpaceOnUse"
       id="clipPath16"><path
         d="m 0,1.2207e-4 720,0 0,539.99999793 -720,0 L 0,1.2207e-4 Z"
         id="path18"
         inkscape:connector-curvature="0"
         style="clip-rule:evenodd" /></clipPath><clipPath
       clipPathUnits="userSpaceOnUse"
       id="clipPath30"><path
         d="M 1.86e-7,540 720,540 720,1.2207e-4 l -720.000001782,0"
         id="path32"
         inkscape:connector-curvature="0"
         style="clip-rule:evenodd" /></clipPath><clipPath
       clipPathUnits="userSpaceOnUse"
       id="clipPath104"><path
         d="M 1.439e-6,540 720,540 720,1.8311e-4 1.432e-6,1.2207e-4"
         id="path106"
         inkscape:connector-curvature="0"
         style="clip-rule:evenodd" /></clipPath><clipPath
       clipPathUnits="userSpaceOnUse"
       id="clipPath114"><path
         d="M 1.439e-6,540 720,540 720,1.8311e-4 1.432e-6,1.2207e-4"
         id="path116"
         inkscape:connector-curvature="0"
         style="clip-rule:evenodd" /></clipPath><clipPath
       clipPathUnits="userSpaceOnUse"
       id="clipPath124"><path
         d="M -5.261e-6,540 720,540 720,6.104e-6 l -720.000004375,0"
         id="path126"
         inkscape:connector-curvature="0"
         style="clip-rule:evenodd" /></clipPath><clipPath
       clipPathUnits="userSpaceOnUse"
       id="clipPath176"><path
         d="M 3.83e-7,540 720,540 720,0 -6.01e-7,6.104e-6"
         id="path178"
         inkscape:connector-curvature="0"
         style="clip-rule:evenodd" /></clipPath></defs><sodipodi:namedview
     pagecolor="#ffffff"
     bordercolor="#666666"
     borderopacity="1"
     objecttolerance="10"
     gridtolerance="10"
     guidetolerance="10"
     inkscape:pageopacity="0"
     inkscape:pageshadow="2"
     inkscape:window-width="1920"
     inkscape:window-height="1018"
     id="namedview4"
     showgrid="false"
     fit-margin-top="0"
     fit-margin-left="0"
     fit-margin-right="0"
     fit-margin-bottom="0"
     inkscape:zoom="0.98890193"
     inkscape:cx="385.03969"
     inkscape:cy="295.62428"
     inkscape:window-x="-8"
     inkscape:window-y="-8"
     inkscape:window-maximized="1"
     inkscape:current-layer="g10" /><g
     id="g10"
     inkscape:groupmode="layer"
     inkscape:label="house_orig"
     transform="matrix(1.25,0,0,-1.25,-9.331125,629.33747)"><g
       id="g4352"><g
         id="g22"><path
           inkscape:connector-curvature="0"
           id="path24"
           style="fill:none;stroke:#be4b48;stroke-width:0.75;stroke-linecap:butt;stroke-linejoin:round;stroke-miterlimit:10;stroke-dasharray:3, 2.25;stroke-dashoffset:0;stroke-opacity:1"
           d="m 274.95,231.14 -18.39,0" /></g><g
         id="g26"><g
           clip-path="url(#clipPath30)"
           id="g28"><path
             inkscape:connector-curvature="0"
             id="path34"
             style="fill:none;stroke:#be4b48;stroke-width:0.75;stroke-linecap:butt;stroke-linejoin:round;stroke-miterlimit:10;stroke-dasharray:3, 2.25;stroke-dashoffset:0;stroke-opacity:1"
             d="m 203.48,321.09 0,-19.31 27.74,0 0,-19.32" /></g></g><g
         id="g36"><path
           inkscape:connector-curvature="0"
           id="path38"
           style="fill:none;stroke:#be4b48;stroke-width:0.75;stroke-linecap:butt;stroke-linejoin:round;stroke-miterlimit:10;stroke-dasharray:3, 2.25;stroke-dashoffset:0;stroke-opacity:1"
           d="m 337.64,445.76 -62.69,0" /></g><g
         id="g44"><path
           inkscape:connector-curvature="0"
           id="path46"
           style="fill:none;stroke:#be4b48;stroke-width:0.75;stroke-linecap:butt;stroke-linejoin:round;stroke-miterlimit:10;stroke-dasharray:3, 2.25;stroke-dashoffset:0;stroke-opacity:1"
           d="m 177.57,230.95 28.29,0.19" /></g><path
         inkscape:connector-curvature="0"
         id="path48"
         style="fill:#ffffff;fill-opacity:1;fill-rule:evenodd;stroke:none"
         d="m 442.97,206.34 82.205,0 0,45.354 -82.205,0 0,-45.354 z" /><path
         inkscape:connector-curvature="0"
         id="path50"
         style="fill:none;stroke:#4f81bd;stroke-width:2;stroke-linecap:butt;stroke-linejoin:round;stroke-miterlimit:10;stroke-dasharray:none;stroke-opacity:1"
         d="m 442.97,206.34 82.205,0 0,45.354 -82.205,0 0,-45.354 z" /><text
         id="text52"
         style="font-variant:normal;font-weight:normal;font-size:18px;font-family:Calibri;-inkscape-font-specification:Calibri;writing-mode:lr-tb;fill:#000000;fill-opacity:1;fill-rule:nonzero;stroke:none"
         transform="matrix(1,0,0,-1,451.22,233.74)"><tspan
           id="tspan54"
           sodipodi:role="line"
           y="0"
           x="0 8.7840004 12.834 21.798 29.412001 35.442001 41.633999 45.720001 53.153999 61.776001">Electrical</tspan></text>
<text
         id="text56"
         style="font-variant:normal;font-weight:normal;font-size:18px;font-family:Calibri;-inkscape-font-specification:Calibri;writing-mode:lr-tb;fill:#000000;fill-opacity:1;fill-rule:nonzero;stroke:none"
         transform="matrix(1,0,0,-1,469.94,212.14)"><tspan
           id="tspan58"
           sodipodi:role="line"
           y="0"
           x="0 8.4779997 14.76 18.846001">grid</tspan></text>
<path
         inkscape:connector-curvature="0"
         id="path60"
         style="fill:none;stroke:#bfbfbf;stroke-width:2;stroke-linecap:butt;stroke-linejoin:round;stroke-miterlimit:10;stroke-dasharray:none;stroke-opacity:1"
         d="m 90.536,161.29 338.83,0 0,218.7 -338.83,0 0,-218.7 z" /><path
         inkscape:connector-curvature="0"
         id="path62"
         style="fill:none;stroke:#bfbfbf;stroke-width:2;stroke-linecap:butt;stroke-linejoin:round;stroke-miterlimit:10;stroke-dasharray:none;stroke-opacity:1"
         d="m 90.536,379.99 169.414,122.48 169.41,-122.48 -338.824,0 z" /><g
         id="g40"><path
           inkscape:connector-curvature="0"
           id="path42"
           style="fill:none;stroke:#be4b48;stroke-width:0.75;stroke-linecap:butt;stroke-linejoin:round;stroke-miterlimit:10;stroke-dasharray:3, 2.25;stroke-dashoffset:0;stroke-opacity:1"
           d="m 274.95,231.1 0,214.66" /></g><g
         id="g64"><path
           inkscape:connector-curvature="0"
           id="path66"
           style="fill:none;stroke:#f69240;stroke-width:0.75;stroke-linecap:butt;stroke-linejoin:round;stroke-miterlimit:10;stroke-dasharray:0.75, 0.75;stroke-dashoffset:0;stroke-opacity:1"
           d="m 79.331,253.63 30.199,0" /></g><path
         inkscape:connector-curvature="0"
         id="path68"
         style="fill:#ffffff;fill-opacity:1;fill-rule:evenodd;stroke:none"
         d="m 109.53,185.6 68.031,0 0,90.709 -68.031,0 0,-90.709 z" /><text
         id="text72"
         style="font-variant:normal;font-weight:normal;font-size:18px;font-family:Calibri;-inkscape-font-specification:Calibri;writing-mode:lr-tb;fill:#000000;fill-opacity:1;fill-rule:nonzero;stroke:none"
         transform="matrix(1,0,0,-1,122.14,257.28)"><tspan
           id="tspan74"
           sodipodi:role="line"
           y="0"
           x="0 9.7919998 19.278 23.417999 27.486 36.450001">Boiler</tspan></text>
<text
         id="text76"
         style="font-variant:normal;font-weight:normal;font-size:18px;font-family:Calibri;-inkscape-font-specification:Calibri;writing-mode:lr-tb;fill:#000000;fill-opacity:1;fill-rule:nonzero;stroke:none"
         transform="matrix(1,0,0,-1,128.5,235.68)"><tspan
           id="tspan78"
           sodipodi:role="line"
           y="0"
           x="0 9.5939999 20.808001">CHP</tspan></text>
<text
         id="text80"
         style="font-variant:normal;font-weight:normal;font-size:18px;font-family:Calibri;-inkscape-font-specification:Calibri;writing-mode:lr-tb;fill:#000000;fill-opacity:1;fill-rule:nonzero;stroke:none"
         transform="matrix(1,0,0,-1,133.54,214.08)"><tspan
           id="tspan82"
           sodipodi:role="line"
           y="0"
           x="0 8.7600002">EH</tspan></text>
<text
         id="text84"
         style="font-variant:normal;font-weight:normal;font-size:18.02400017px;font-family:Calibri;-inkscape-font-specification:Calibri;writing-mode:lr-tb;fill:#000000;fill-opacity:1;fill-rule:nonzero;stroke:none"
         transform="matrix(1,0,0,-1,133.3,192.46)"><tspan
           id="tspan86"
           sodipodi:role="line"
           y="0"
           x="0 11.159952">HP</tspan></text>
<path
         inkscape:connector-curvature="0"
         id="path88"
         style="fill:#ffffff;fill-opacity:1;fill-rule:evenodd;stroke:none"
         d="m 8.4649,230.95 70.866,0 0,45.354 -70.866,0 0,-45.354 z" /><path
         inkscape:connector-curvature="0"
         id="path90"
         style="fill:none;stroke:#f79646;stroke-width:2;stroke-linecap:butt;stroke-linejoin:round;stroke-miterlimit:10;stroke-dasharray:none;stroke-opacity:1"
         d="m 8.4649,230.95 70.866,0 0,45.354 -70.866,0 0,-45.354 z" /><text
         id="text92"
         style="font-variant:normal;font-weight:normal;font-size:18px;font-family:Calibri;-inkscape-font-specification:Calibri;writing-mode:lr-tb;fill:#000000;fill-opacity:1;fill-rule:nonzero;stroke:none"
         transform="matrix(1,0,0,-1,16.776,258.36)"><tspan
           id="tspan94"
           sodipodi:role="line"
           y="0"
           x="0 11.628 20.16 26.190001 35.639999 41.526001 50.147999 54.287998">Natural </tspan></text>
<text
         id="text96"
         style="font-variant:normal;font-weight:normal;font-size:18px;font-family:Calibri;-inkscape-font-specification:Calibri;writing-mode:lr-tb;fill:#000000;fill-opacity:1;fill-rule:nonzero;stroke:none"
         transform="matrix(1,0,0,-1,31.896,236.76)"><tspan
           id="tspan98"
           sodipodi:role="line"
           y="0"
           x="0 8.1540003 16.775999">gas</tspan></text>
<g
         id="g100"><g
           clip-path="url(#clipPath104)"
           id="g102"><path
             inkscape:connector-curvature="0"
             id="path108"
             style="fill:#ffffff;fill-opacity:1;fill-rule:evenodd;stroke:none"
             d="m 331.3,479.83 96.65,-69.79 -13.75,-19.05 -96.65,69.79 13.75,19.05 z" /></g></g><g
         id="g110"><g
           clip-path="url(#clipPath114)"
           id="g112"><path
             inkscape:connector-curvature="0"
             id="path118"
             style="fill:none;stroke:#000000;stroke-width:2;stroke-linecap:butt;stroke-linejoin:round;stroke-miterlimit:10;stroke-dasharray:none;stroke-opacity:1"
             d="m 331.3,479.83 96.65,-69.79 -13.75,-19.05 -96.65,69.79 13.75,19.05 z" /></g></g><g
         id="g120"><g
           clip-path="url(#clipPath124)"
           id="g122"><path
             inkscape:connector-curvature="0"
             id="path128"
             style="fill:#000000;fill-opacity:1;fill-rule:nonzero;stroke:none"
             d="m 356.18,449.89 c -0.34,-0.46 -0.71,-0.82 -1.13,-1.08 -0.42,-0.26 -0.87,-0.42 -1.34,-0.47 -0.47,-0.06 -0.96,-0.01 -1.48,0.14 -0.51,0.16 -1.05,0.44 -1.62,0.85 l -1.05,0.76 -2.4,-3.32 c -0.02,-0.04 -0.06,-0.07 -0.1,-0.08 -0.04,-0.01 -0.09,-0.01 -0.15,0 -0.06,0.02 -0.13,0.05 -0.22,0.09 -0.08,0.05 -0.19,0.11 -0.3,0.2 -0.12,0.09 -0.22,0.16 -0.29,0.23 -0.07,0.07 -0.12,0.13 -0.16,0.18 -0.03,0.05 -0.05,0.1 -0.05,0.14 0.01,0.04 0.02,0.08 0.05,0.12 l 6.14,8.51 c 0.14,0.19 0.28,0.29 0.44,0.3 0.16,0.01 0.3,-0.03 0.43,-0.12 l 1.97,-1.43 c 0.2,-0.14 0.38,-0.29 0.55,-0.44 0.18,-0.15 0.37,-0.34 0.58,-0.57 0.21,-0.24 0.39,-0.52 0.54,-0.86 0.15,-0.34 0.24,-0.68 0.26,-1.03 0.02,-0.35 -0.02,-0.7 -0.13,-1.06 -0.11,-0.36 -0.29,-0.71 -0.54,-1.06 z m -1.37,0.84 c 0.28,0.37 0.43,0.74 0.47,1.09 0.04,0.35 0.01,0.66 -0.11,0.94 -0.12,0.27 -0.28,0.5 -0.47,0.7 -0.2,0.19 -0.4,0.36 -0.61,0.51 l -1.13,0.82 -2.67,-3.7 1.1,-0.8 c 0.37,-0.26 0.71,-0.44 1.03,-0.52 0.31,-0.08 0.61,-0.1 0.9,-0.05 0.29,0.05 0.56,0.16 0.81,0.33 0.26,0.18 0.49,0.4 0.68,0.68 z m 2.27,-11.08 c -0.06,-0.04 -0.12,-0.06 -0.17,-0.07 -0.06,-0.01 -0.12,0 -0.2,0.02 -0.07,0.02 -0.16,0.07 -0.25,0.13 -0.1,0.05 -0.22,0.13 -0.36,0.23 -0.1,0.08 -0.19,0.15 -0.27,0.21 -0.08,0.05 -0.14,0.11 -0.19,0.16 -0.05,0.05 -0.09,0.1 -0.12,0.14 -0.03,0.04 -0.06,0.08 -0.07,0.12 -0.02,0.04 -0.02,0.08 -0.02,0.11 0,0.04 0.01,0.09 0.02,0.13 l 3.17,10.75 c 0.04,0.13 0.08,0.23 0.12,0.29 0.05,0.07 0.1,0.1 0.17,0.11 0.07,0 0.15,-0.03 0.25,-0.09 0.1,-0.06 0.24,-0.15 0.4,-0.26 0.13,-0.1 0.23,-0.18 0.31,-0.24 0.07,-0.07 0.12,-0.12 0.15,-0.17 0.03,-0.05 0.04,-0.1 0.04,-0.15 0,-0.04 -0.01,-0.1 -0.02,-0.16 l -2.96,-9.67 0.01,0 8.16,5.89 c 0.05,0.04 0.1,0.07 0.14,0.09 0.05,0.02 0.1,0.02 0.16,0 0.06,-0.01 0.14,-0.05 0.23,-0.1 0.09,-0.06 0.21,-0.13 0.35,-0.24 0.15,-0.1 0.26,-0.19 0.33,-0.27 0.08,-0.07 0.12,-0.14 0.13,-0.19 0.01,-0.06 -0.02,-0.11 -0.07,-0.17 -0.05,-0.06 -0.14,-0.13 -0.25,-0.21 l -9.19,-6.39 z M 363.6,432 c -0.06,-0.05 -0.12,-0.08 -0.18,-0.09 -0.05,-0.02 -0.11,-0.01 -0.17,0 -0.06,0.02 -0.13,0.04 -0.21,0.08 -0.07,0.04 -0.16,0.1 -0.26,0.17 -0.12,0.09 -0.21,0.17 -0.28,0.24 -0.07,0.07 -0.11,0.14 -0.13,0.2 -0.02,0.07 -0.02,0.12 0,0.17 0.03,0.06 0.08,0.1 0.15,0.14 l 12.84,8.71 c 0.07,0.05 0.13,0.08 0.19,0.1 0.05,0.01 0.11,0.01 0.17,0 0.06,-0.01 0.13,-0.04 0.21,-0.08 0.07,-0.05 0.16,-0.11 0.26,-0.18 0.12,-0.09 0.21,-0.16 0.27,-0.24 0.07,-0.07 0.11,-0.13 0.13,-0.19 0.03,-0.06 0.03,-0.12 0,-0.17 -0.02,-0.06 -0.07,-0.11 -0.14,-0.15 L 363.6,432 Z m 17.14,-5.82 c -0.31,-0.44 -0.67,-0.76 -1.07,-0.99 -0.4,-0.22 -0.83,-0.35 -1.28,-0.38 -0.46,-0.03 -0.92,0.03 -1.39,0.19 -0.46,0.16 -0.92,0.4 -1.36,0.72 -0.31,0.22 -0.58,0.45 -0.8,0.7 -0.23,0.24 -0.42,0.47 -0.57,0.7 -0.15,0.22 -0.27,0.43 -0.35,0.61 -0.08,0.18 -0.13,0.32 -0.14,0.42 -0.02,0.09 0,0.19 0.03,0.3 0.04,0.11 0.11,0.23 0.22,0.38 0.07,0.11 0.14,0.19 0.2,0.25 0.06,0.06 0.11,0.11 0.16,0.14 0.05,0.03 0.1,0.04 0.14,0.04 0.04,-0.01 0.08,-0.02 0.12,-0.05 0.06,-0.05 0.13,-0.16 0.19,-0.33 0.07,-0.16 0.16,-0.36 0.28,-0.6 0.12,-0.23 0.28,-0.48 0.49,-0.76 0.21,-0.28 0.49,-0.54 0.84,-0.8 0.27,-0.19 0.54,-0.33 0.81,-0.42 0.27,-0.09 0.54,-0.12 0.79,-0.11 0.25,0.02 0.49,0.09 0.71,0.22 0.23,0.13 0.43,0.31 0.6,0.56 0.19,0.26 0.29,0.52 0.31,0.79 0.01,0.28 -0.03,0.55 -0.12,0.83 -0.1,0.28 -0.23,0.57 -0.39,0.87 -0.17,0.29 -0.34,0.6 -0.51,0.91 -0.17,0.31 -0.33,0.62 -0.47,0.95 -0.14,0.33 -0.24,0.66 -0.29,1 -0.05,0.34 -0.04,0.69 0.03,1.04 0.08,0.36 0.25,0.72 0.52,1.1 0.28,0.38 0.6,0.68 0.95,0.88 0.36,0.2 0.74,0.31 1.14,0.33 0.39,0.03 0.8,-0.03 1.22,-0.17 0.43,-0.14 0.84,-0.36 1.23,-0.65 0.21,-0.14 0.4,-0.31 0.58,-0.5 0.18,-0.18 0.34,-0.37 0.48,-0.56 0.14,-0.19 0.26,-0.37 0.35,-0.55 0.09,-0.18 0.14,-0.31 0.15,-0.38 0.01,-0.08 0.02,-0.14 0.01,-0.17 0,-0.04 -0.01,-0.08 -0.03,-0.13 -0.02,-0.05 -0.05,-0.1 -0.09,-0.16 -0.03,-0.06 -0.09,-0.14 -0.15,-0.23 -0.06,-0.08 -0.12,-0.16 -0.18,-0.22 -0.05,-0.06 -0.1,-0.11 -0.15,-0.14 -0.05,-0.04 -0.09,-0.06 -0.13,-0.06 -0.04,0 -0.08,0.01 -0.11,0.03 -0.06,0.04 -0.11,0.13 -0.18,0.28 -0.06,0.15 -0.14,0.32 -0.24,0.52 -0.11,0.2 -0.24,0.42 -0.41,0.64 -0.18,0.23 -0.4,0.45 -0.67,0.65 -0.26,0.18 -0.51,0.31 -0.75,0.38 -0.24,0.06 -0.46,0.09 -0.67,0.06 -0.2,-0.02 -0.39,-0.09 -0.57,-0.2 -0.17,-0.12 -0.32,-0.26 -0.45,-0.44 -0.19,-0.25 -0.29,-0.52 -0.3,-0.79 -0.02,-0.27 0.02,-0.55 0.12,-0.83 0.09,-0.29 0.22,-0.58 0.39,-0.88 0.16,-0.3 0.33,-0.61 0.51,-0.92 0.17,-0.31 0.33,-0.62 0.48,-0.95 0.15,-0.33 0.25,-0.66 0.3,-1 0.06,-0.34 0.05,-0.69 -0.02,-1.04 -0.08,-0.36 -0.25,-0.72 -0.51,-1.08 z m 11.85,0.73 c -0.06,-0.09 -0.12,-0.17 -0.18,-0.23 -0.06,-0.06 -0.11,-0.1 -0.16,-0.12 -0.05,-0.03 -0.1,-0.04 -0.15,-0.04 -0.04,0.01 -0.08,0.02 -0.12,0.05 l -2.59,1.87 -5.78,-7.99 c -0.02,-0.04 -0.06,-0.07 -0.1,-0.08 -0.04,-0.02 -0.09,-0.01 -0.15,0 -0.06,0.02 -0.13,0.05 -0.22,0.1 -0.08,0.04 -0.19,0.11 -0.3,0.19 -0.12,0.08 -0.21,0.16 -0.28,0.23 -0.08,0.07 -0.13,0.13 -0.17,0.18 -0.03,0.05 -0.05,0.1 -0.05,0.14 0.01,0.04 0.02,0.08 0.05,0.12 l 5.77,8 -2.59,1.87 c -0.04,0.03 -0.07,0.06 -0.09,0.1 -0.01,0.05 -0.02,0.09 -0.01,0.15 0.01,0.05 0.04,0.12 0.07,0.19 0.04,0.08 0.09,0.16 0.15,0.25 0.07,0.09 0.13,0.16 0.19,0.22 0.07,0.06 0.12,0.11 0.17,0.14 0.05,0.03 0.1,0.04 0.14,0.04 0.05,-0.01 0.09,-0.02 0.13,-0.05 l 6.41,-4.63 c 0.04,-0.03 0.07,-0.06 0.08,-0.1 0.02,-0.04 0.02,-0.09 0.01,-0.15 0,-0.06 -0.03,-0.13 -0.07,-0.2 -0.04,-0.08 -0.09,-0.16 -0.16,-0.25 z m 1.85,-12.58 c -0.05,-0.08 -0.1,-0.14 -0.15,-0.2 -0.04,-0.05 -0.09,-0.09 -0.13,-0.13 -0.04,-0.03 -0.08,-0.06 -0.13,-0.08 -0.04,-0.02 -0.1,-0.03 -0.19,-0.05 -0.08,-0.01 -0.23,-0.01 -0.45,0 -0.22,0.01 -0.48,0.06 -0.77,0.13 -0.3,0.07 -0.61,0.17 -0.95,0.32 -0.34,0.15 -0.68,0.35 -1.03,0.6 -0.6,0.43 -1.06,0.92 -1.4,1.47 -0.34,0.54 -0.54,1.14 -0.6,1.77 -0.06,0.64 0.03,1.31 0.26,2.01 0.23,0.7 0.62,1.43 1.15,2.18 0.56,0.76 1.15,1.37 1.78,1.83 0.63,0.45 1.27,0.76 1.92,0.92 0.66,0.16 1.32,0.17 1.97,0.03 0.65,-0.14 1.28,-0.43 1.89,-0.87 0.26,-0.19 0.5,-0.4 0.72,-0.63 0.22,-0.23 0.4,-0.46 0.56,-0.7 0.16,-0.23 0.29,-0.45 0.38,-0.67 0.1,-0.22 0.15,-0.39 0.17,-0.5 0.02,-0.11 0.02,-0.18 0.02,-0.23 -0.01,-0.05 -0.02,-0.1 -0.04,-0.15 -0.02,-0.06 -0.05,-0.12 -0.09,-0.18 -0.03,-0.07 -0.08,-0.15 -0.15,-0.23 -0.06,-0.1 -0.13,-0.17 -0.19,-0.23 -0.05,-0.06 -0.11,-0.11 -0.16,-0.14 -0.05,-0.03 -0.1,-0.05 -0.14,-0.05 -0.04,0 -0.08,0.01 -0.12,0.04 -0.07,0.04 -0.13,0.16 -0.18,0.34 -0.05,0.18 -0.13,0.39 -0.24,0.64 -0.11,0.24 -0.26,0.51 -0.47,0.8 -0.2,0.29 -0.49,0.57 -0.87,0.84 -0.41,0.3 -0.84,0.48 -1.29,0.56 -0.46,0.08 -0.92,0.05 -1.39,-0.1 -0.47,-0.14 -0.93,-0.4 -1.4,-0.76 -0.46,-0.36 -0.9,-0.84 -1.33,-1.43 -0.42,-0.58 -0.73,-1.15 -0.93,-1.69 -0.19,-0.54 -0.28,-1.04 -0.27,-1.52 0.02,-0.47 0.15,-0.91 0.38,-1.31 0.23,-0.4 0.57,-0.76 1,-1.07 0.37,-0.27 0.72,-0.46 1.06,-0.56 0.34,-0.11 0.65,-0.18 0.92,-0.21 0.28,-0.03 0.51,-0.04 0.7,-0.04 0.19,0 0.32,-0.02 0.39,-0.07 0.03,-0.03 0.06,-0.06 0.07,-0.09 0.01,-0.03 0.01,-0.07 0,-0.12 -0.02,-0.05 -0.05,-0.12 -0.09,-0.19 -0.04,-0.08 -0.11,-0.17 -0.19,-0.28 z" /></g></g><path
         inkscape:connector-curvature="0"
         id="path130"
         style="fill:#ffffff;fill-opacity:1;fill-rule:evenodd;stroke:none"
         d="m 160.96,321.09 85.039,0 0,45.354 -85.039,0 0,-45.354 z" /><path
         inkscape:connector-curvature="0"
         id="path132"
         style="fill:none;stroke:#c0504d;stroke-width:2;stroke-linecap:butt;stroke-linejoin:round;stroke-miterlimit:10;stroke-dasharray:none;stroke-opacity:1"
         d="m 160.96,321.09 85.039,0 0,45.354 -85.039,0 0,-45.354 z" /><text
         id="text134"
         style="font-variant:normal;font-weight:normal;font-size:18px;font-family:Calibri;-inkscape-font-specification:Calibri;writing-mode:lr-tb;fill:#000000;fill-opacity:1;fill-rule:nonzero;stroke:none"
         transform="matrix(1,0,0,-1,173.23,348.53)"><tspan
           id="tspan136"
           sodipodi:role="line"
           y="0"
           x="0 8.7659998 18.216 27.216 33.498001 47.880001 56.501999 60.57">Thermal </tspan></text>
<text
         id="text138"
         style="font-variant:normal;font-weight:normal;font-size:18px;font-family:Calibri;-inkscape-font-specification:Calibri;writing-mode:lr-tb;fill:#000000;fill-opacity:1;fill-rule:nonzero;stroke:none"
         transform="matrix(1,0,0,-1,184.15,326.93)"><tspan
           id="tspan140"
           sodipodi:role="line"
           y="0"
           x="0 4.086 13.572 22.194 31.643999">loads</tspan></text>
<path
         inkscape:connector-curvature="0"
         id="path142"
         style="fill:#ffffff;fill-opacity:1;fill-rule:evenodd;stroke:none"
         d="m 330.66,321.03 85.039,0 0,45.354 -85.039,0 0,-45.354 z" /><path
         inkscape:connector-curvature="0"
         id="path144"
         style="fill:none;stroke:#4f81bd;stroke-width:2;stroke-linecap:butt;stroke-linejoin:round;stroke-miterlimit:10;stroke-dasharray:none;stroke-opacity:1"
         d="m 330.66,321.03 85.039,0 0,45.354 -85.039,0 0,-45.354 z" /><text
         id="text146"
         style="font-variant:normal;font-weight:normal;font-size:18px;font-family:Calibri;-inkscape-font-specification:Calibri;writing-mode:lr-tb;fill:#000000;fill-opacity:1;fill-rule:nonzero;stroke:none"
         transform="matrix(1,0,0,-1,340.32,348.46)"><tspan
           id="tspan148"
           sodipodi:role="line"
           y="0"
           x="0 8.7840004 12.834 21.798 29.412001 35.442001 41.633999 45.720001 53.153999 61.776001">Electrical</tspan></text>
<text
         id="text150"
         style="font-variant:normal;font-weight:normal;font-size:18px;font-family:Calibri;-inkscape-font-specification:Calibri;writing-mode:lr-tb;fill:#000000;fill-opacity:1;fill-rule:nonzero;stroke:none"
         transform="matrix(1,0,0,-1,353.88,326.86)"><tspan
           id="tspan152"
           sodipodi:role="line"
           y="0"
           x="0 4.086 13.572 22.194 31.643999">loads</tspan></text>
<g
         id="g154"><path
           inkscape:connector-curvature="0"
           id="path156"
           style="fill:none;stroke:#4a7ebb;stroke-width:0.75;stroke-linecap:butt;stroke-linejoin:round;stroke-miterlimit:10;stroke-dasharray:3, 2.25, 0.75, 2.25;stroke-dashoffset:0;stroke-opacity:1"
           d="m 360,428.76 -52.66,0 0,-9.93" /></g><path
         inkscape:connector-curvature="0"
         id="path158"
         style="fill:#ffffff;fill-opacity:1;fill-rule:evenodd;stroke:none"
         d="m 294.36,390.76 25.946,0 0,28.068 -25.946,0 0,-28.068 z" /><path
         inkscape:connector-curvature="0"
         id="path160"
         style="fill:none;stroke:#000000;stroke-width:2;stroke-linecap:butt;stroke-linejoin:round;stroke-miterlimit:10;stroke-dasharray:none;stroke-opacity:1"
         d="m 294.36,390.76 25.946,0 0,28.068 -25.946,0 0,-28.068 z" /><path
         inkscape:connector-curvature="0"
         id="path162"
         style="fill:none;stroke:#000000;stroke-width:2.25;stroke-linecap:butt;stroke-linejoin:round;stroke-miterlimit:10;stroke-dasharray:none;stroke-opacity:1"
         d="M 320.16,418.83 294.21,390.76" /><text
         id="text164"
         style="font-variant:normal;font-weight:normal;font-size:18px;font-family:Calibri;-inkscape-font-specification:Calibri;writing-mode:lr-tb;fill:#000000;fill-opacity:1;fill-rule:nonzero;stroke:none"
         transform="matrix(1,0,0,-1,298.44,406.22)"><tspan
           id="tspan166"
           y="0"
           x="0">−</tspan></text>
<text
         id="text168"
         style="font-variant:normal;font-weight:normal;font-size:18px;font-family:Calibri;-inkscape-font-specification:Calibri;writing-mode:lr-tb;fill:#000000;fill-opacity:1;fill-rule:nonzero;stroke:none"
         transform="matrix(1,0,0,-1,307.99,389.64)"><tspan
           id="tspan170"
           y="0"
           x="0">~</tspan></text>
<g
         id="g172"><g
           clip-path="url(#clipPath176)"
           id="g174"><path
             inkscape:connector-curvature="0"
             id="path180"
             style="fill:none;stroke:#4a7ebb;stroke-width:0.75;stroke-linecap:butt;stroke-linejoin:round;stroke-miterlimit:10;stroke-dasharray:3, 2.25, 0.75, 2.25;stroke-dashoffset:0;stroke-opacity:1"
             d="m 143.55,185.6 0,-18 163.79,0 0,223.16" /></g></g><path
         inkscape:connector-curvature="0"
         id="path70"
         style="fill:none;stroke:#000000;stroke-width:2;stroke-linecap:butt;stroke-linejoin:round;stroke-miterlimit:10;stroke-dasharray:none;stroke-opacity:1"
         d="m 109.53,185.6 68.031,0 0,90.709 -68.031,0 0,-90.709 z" /><g
         id="g182"><path
           inkscape:connector-curvature="0"
           id="path184"
           style="fill:none;stroke:#4a7ebb;stroke-width:0.75;stroke-linecap:butt;stroke-linejoin:round;stroke-miterlimit:10;stroke-dasharray:3, 2.25, 0.75, 2.25;stroke-dashoffset:0;stroke-opacity:1"
           d="m 373.06,249.87 0.12,71.16" /></g><path
         inkscape:connector-curvature="0"
         id="path186"
         style="fill:#ffffff;fill-opacity:1;fill-rule:evenodd;stroke:none"
         d="m 344.71,211.68 56.699,0 0,38.19 -56.699,0 0,-38.19 z" /><path
         inkscape:connector-curvature="0"
         id="path188"
         style="fill:none;stroke:#000000;stroke-width:2;stroke-linecap:butt;stroke-linejoin:round;stroke-miterlimit:10;stroke-dasharray:none;stroke-opacity:1"
         d="m 344.71,211.68 56.699,0 0,38.19 -56.699,0 0,-38.19 z" /><text
         id="text190"
         style="font-variant:normal;font-weight:normal;font-size:18.02400017px;font-family:Calibri;-inkscape-font-specification:Calibri;writing-mode:lr-tb;fill:#000000;fill-opacity:1;fill-rule:nonzero;stroke:none"
         transform="matrix(1,0,0,-1,359.3,224.69)"><tspan
           id="tspan192"
           sodipodi:role="line"
           y="0"
           x="0 9.7509842 18.744961">BAT</tspan></text>
<path
         inkscape:connector-curvature="0"
         id="path194"
         style="fill:#ffffff;fill-opacity:1;fill-rule:evenodd;stroke:none"
         d="m 348.77,249.76 5.6699,0 0,5.6699 -5.6699,0 0,-5.6699 z" /><path
         inkscape:connector-curvature="0"
         id="path196"
         style="fill:none;stroke:#000000;stroke-width:2;stroke-linecap:butt;stroke-linejoin:round;stroke-miterlimit:10;stroke-dasharray:none;stroke-opacity:1"
         d="m 348.77,249.92 5.6699,0 0,5.6699 -5.6699,0 0,-5.6699 z" /><path
         inkscape:connector-curvature="0"
         id="path198"
         style="fill:#ffffff;fill-opacity:1;fill-rule:evenodd;stroke:none"
         d="m 392.25,249.76 5.6699,0 0,5.6699 -5.6699,0 0,-5.6699 z" /><path
         inkscape:connector-curvature="0"
         id="path200"
         style="fill:none;stroke:#000000;stroke-width:2;stroke-linecap:butt;stroke-linejoin:round;stroke-miterlimit:10;stroke-dasharray:none;stroke-opacity:1"
         d="m 392.25,249.92 5.6699,0 0,5.6699 -5.6699,0 0,-5.6699 z" /><text
         id="text202"
         style="font-variant:normal;font-weight:normal;font-size:18px;font-family:Calibri;-inkscape-font-specification:Calibri;writing-mode:lr-tb;fill:#000000;fill-opacity:1;fill-rule:nonzero;stroke:none"
         transform="matrix(1,0,0,-1,347.16,237.14)"><tspan
           id="tspan204"
           y="0"
           x="0">−</tspan></text>
<text
         id="text206"
         style="font-variant:normal;font-weight:normal;font-size:18px;font-family:Calibri;-inkscape-font-specification:Calibri;writing-mode:lr-tb;fill:#000000;fill-opacity:1;fill-rule:nonzero;stroke:none"
         transform="matrix(1,0,0,-1,390.65,237.14)"><tspan
           id="tspan208"
           y="0"
           x="0">+</tspan></text>
<path
         inkscape:connector-curvature="0"
         id="path210"
         style="fill:none;stroke:#000000;stroke-width:2.25;stroke-linecap:butt;stroke-linejoin:round;stroke-miterlimit:10;stroke-dasharray:none;stroke-opacity:1"
         d="m 205.86,266.95 0,-71.89" /><path
         inkscape:connector-curvature="0"
         id="path212"
         style="fill:none;stroke:#000000;stroke-width:2.25;stroke-linecap:butt;stroke-linejoin:round;stroke-miterlimit:10;stroke-dasharray:none;stroke-opacity:1"
         d="m 256.56,266.95 0,-71.89" /><path
         inkscape:connector-curvature="0"
         id="path214"
         style="fill:none;stroke:#000000;stroke-width:2.25;stroke-linecap:butt;stroke-linejoin:round;stroke-miterlimit:10;stroke-dasharray:none;stroke-opacity:1"
         d="m 205.86,266.87 c 0.1,8.67 11.52,15.65 25.52,15.59 13.93,-0.06 25.17,-7.07 25.17,-15.69" /><path
         inkscape:connector-curvature="0"
         id="path216"
         style="fill:none;stroke:#000000;stroke-width:2.25;stroke-linecap:butt;stroke-linejoin:round;stroke-miterlimit:10;stroke-dasharray:none;stroke-opacity:1"
         d="m 256.56,195.39 c -0.09,-8.67 -11.52,-15.65 -25.52,-15.59 -13.93,0.06 -25.17,7.07 -25.17,15.69" /><text
         id="text218"
         style="font-variant:normal;font-weight:normal;font-size:18px;font-family:Calibri;-inkscape-font-specification:Calibri;writing-mode:lr-tb;fill:#000000;fill-opacity:1;fill-rule:nonzero;stroke:none"
         transform="matrix(1,0,0,-1,218.4,225.07)"><tspan
           id="tspan220"
           sodipodi:role="line"
           y="0"
           x="0 8.7659998 17.406">TES</tspan></text>
<g
         id="g222"><path
           inkscape:connector-curvature="0"
           id="path224"
           style="fill:none;stroke:#4a7ebb;stroke-width:0.75;stroke-linecap:butt;stroke-linejoin:round;stroke-miterlimit:10;stroke-dasharray:3, 2.25, 0.75, 2.25;stroke-dashoffset:0;stroke-opacity:1"
           d="m 442.97,229.02 -28.44,0 0,63.66 -107.19,0" /></g></g></g></svg>